<svg width="42" height="32" viewBox="0 0 42 32" fill="none" xmlns="http://www.w3.org/2000/svg">
<path opacity="0.15" fill-rule="evenodd" clip-rule="evenodd" d="M1.5 6.89844C1.5 5.79388 2.39543 4.89844 3.5 4.89844H38.3C39.4046 4.89844 40.3 5.79388 40.3 6.89844V27.8873C40.3 28.9919 39.4046 29.8873 38.3 29.8873H24.2108C28.4393 28.5313 31.5 24.5688 31.5 19.8918C31.5 14.0954 26.799 9.39644 21 9.39644C15.201 9.39644 10.5 14.0954 10.5 19.8918C10.5 24.5688 13.5607 28.5313 17.7892 29.8873H3.5C2.39543 29.8873 1.5 28.9919 1.5 27.8873V6.89844ZM21 24.8896C23.7614 24.8896 26 22.652 26 19.8918C26 17.1316 23.7614 14.894 21 14.894C18.2386 14.894 16 17.1316 16 19.8918C16 22.652 18.2386 24.8896 21 24.8896Z" fill="url(#paint0_linear_235_61)"/>
<path d="M2.04688 21.5654C2.04688 21.8198 1.84039 22.0262 1.58594 22.0262C1.33149 22.0262 1.125 21.8198 1.125 21.5654V19.1965C1.125 18.9419 1.33145 18.7358 1.58594 18.7358C1.84043 18.7358 2.04688 18.9419 2.04688 19.1965V21.5654Z" fill="url(#paint1_linear_235_61)" stroke="url(#paint2_linear_235_61)" stroke-width="0.25"/>
<path d="M38.7448 4.72359H36.3178V4.44722C36.3178 3.66449 35.6806 3.02726 34.8972 3.02726H34.6484V2.31987C34.6484 1.53683 34.0109 0.899902 33.2278 0.899902H30.4285C29.6454 0.899902 29.0079 1.53683 29.0079 2.31987V3.02726H28.7591C27.9758 3.02726 27.3386 3.66418 27.3386 4.44722V4.72359H18.9984V4.11351C18.9984 3.33078 18.3612 2.69354 17.5778 2.69354H16.448C15.6649 2.69354 15.0274 3.33047 15.0274 4.11351V4.72359H13.6566V3.27922C13.6566 2.49649 13.0194 1.85926 12.236 1.85926H6.09828C5.31519 1.85926 4.67768 2.49649 4.67768 3.27922V4.72359H3.25525C2.01166 4.72359 1 5.73511 1 6.97785V16.6459C1 16.9695 1.26245 17.2315 1.58594 17.2315C1.90943 17.2315 2.17188 16.9695 2.17188 16.6459V11.0837H5.37867C5.63654 12.0275 6.50172 12.7236 7.5265 12.7236C8.55159 12.7236 9.41646 12.0275 9.67433 11.0837H14.3277C11.6247 13.1147 9.87331 16.3457 9.87331 19.9781C9.87331 22.3629 10.6283 24.5744 11.9116 26.3873H2.17188V24.116C2.17188 23.7924 1.90943 23.5303 1.58594 23.5303C1.26245 23.5303 1 23.7924 1 24.116V27.7795C1 29.0225 2.01166 30.0338 3.25525 30.0338H16.2491C17.6907 30.7171 19.3014 31.0999 21 31.0999C22.6993 31.0999 24.3103 30.7168 25.7522 30.0329C25.7568 30.0332 25.7611 30.0338 25.7657 30.0338H38.7448C39.9884 30.0338 41.0001 29.0225 41.0001 27.7795V6.97785C41.0001 5.73511 39.9884 4.72359 38.7448 4.72359ZM30.1797 2.31987C30.1797 2.18291 30.2914 2.07126 30.4288 2.07126H33.2278C33.3649 2.07126 33.4766 2.1826 33.4766 2.31987V3.02726H30.1801L30.1797 2.31987ZM28.5104 4.44722C28.5104 4.31026 28.6221 4.19861 28.7595 4.19861H34.8972C35.0342 4.19861 35.1459 4.31026 35.1459 4.44722V4.72359H28.5107L28.5104 4.44722ZM16.1993 4.11351C16.1993 3.97655 16.311 3.8649 16.448 3.8649H17.5778C17.7151 3.8649 17.8265 3.97655 17.8265 4.11351V4.72359H16.1993V4.11351ZM5.84956 3.27922C5.84956 3.14226 5.96125 3.03061 6.09828 3.03061H12.2363C12.3733 3.03061 12.485 3.14226 12.485 3.27922V4.72359H5.84956V3.27922ZM7.5265 11.5522C6.94514 11.5522 6.47181 11.0794 6.47181 10.4981C6.47181 9.91691 6.94514 9.44379 7.5265 9.44379C8.10817 9.44379 8.58119 9.91691 8.58119 10.4981C8.58119 11.0794 8.10817 11.5522 7.5265 11.5522ZM9.67433 9.91234C9.41646 8.96854 8.55159 8.27244 7.5265 8.27244C6.50141 8.27244 5.63654 8.96854 5.37867 9.91234H2.17188V6.97785C2.17188 6.38088 2.65802 5.89495 3.25525 5.89495H38.7448C39.3421 5.89495 39.8282 6.38088 39.8282 6.97785V9.91234H38.0844V7.78437C38.0844 7.46103 37.822 7.1987 37.4985 7.1987H32.0453C31.7218 7.1987 31.4594 7.46103 31.4594 7.78437V9.91234H25.7266C24.2627 9.22539 22.651 8.85659 21 8.85659C19.31 8.85659 17.7072 9.23575 16.2713 9.91234H9.67433ZM32.6312 9.91234V8.37005H36.9125V9.91234H32.6312ZM3.25525 28.8624C2.65802 28.8624 2.17188 28.3765 2.17188 27.7795V27.5587H12.8665C13.3099 28.0339 13.7942 28.4704 14.3139 28.8624H3.25525ZM11.0452 19.9784C11.0452 14.4916 15.5111 10.028 21 10.028C23.847 10.028 26.5637 11.2511 28.454 13.3837C28.6685 13.6259 29.0387 13.6485 29.281 13.4338C29.5233 13.2193 29.5456 12.8493 29.3311 12.607C28.8284 12.04 28.273 11.5312 27.6761 11.0837H39.8282V26.3873H30.0885C30.9833 25.1232 31.6205 23.6651 31.9247 22.0896H33.4576C34.3219 22.0896 35.0253 21.3867 35.0253 20.5226V19.0636C35.0253 18.1994 34.3222 17.4966 33.4576 17.4966H31.8448C31.6318 16.5647 31.301 15.6609 30.8569 14.8159C30.7065 14.5295 30.3522 14.419 30.0659 14.5698C29.7794 14.7201 29.6689 15.0739 29.8193 15.3604C30.5621 16.7746 30.9549 18.3715 30.9549 19.9784C30.9549 25.4651 26.4892 29.9288 21 29.9288C15.5111 29.9288 11.0452 25.4648 11.0452 19.9784ZM32.0483 18.6677H33.4576C33.6758 18.6677 33.8535 18.8452 33.8535 19.0633V20.5226C33.8535 20.7407 33.6758 20.9183 33.4576 20.9183H32.0865C32.1127 20.6083 32.1268 20.2947 32.1268 19.9781C32.1268 19.5398 32.1002 19.1021 32.0483 18.6677ZM38.7448 28.8624H27.6861C28.2059 28.4704 28.6902 28.0339 29.1336 27.5587H39.8282V27.7795C39.8282 28.3765 39.3421 28.8624 38.7448 28.8624Z" fill="url(#paint3_linear_235_61)" stroke="url(#paint4_linear_235_61)" stroke-width="0.25"/>
<path d="M13.2415 19.9786C13.2415 15.7023 16.7219 12.2231 21.0001 12.2231C25.2783 12.2231 28.7587 15.7023 28.7587 19.9786C28.7587 24.2546 25.2783 27.7337 21.0001 27.7337C16.7219 27.7337 13.2415 24.2546 13.2415 19.9786ZM14.1633 19.9786C14.1633 23.7468 17.2302 26.8122 21.0001 26.8122C24.77 26.8122 27.8368 23.7468 27.8368 19.9786C27.8368 16.2104 24.77 13.1446 21.0001 13.1446C17.2302 13.1446 14.1633 16.2104 14.1633 19.9786Z" fill="url(#paint5_linear_235_61)" stroke="url(#paint6_linear_235_61)" stroke-width="0.25"/>
<path d="M15.6189 19.9786C15.6189 17.0127 18.033 14.5996 20.9999 14.5996C23.9671 14.5996 26.3812 17.0127 26.3812 19.9786C26.3812 22.9444 23.9671 25.3572 20.9999 25.3572C18.0327 25.3572 15.6189 22.9444 15.6189 19.9786ZM16.5408 19.9786C16.5408 22.4364 18.541 24.4357 20.9999 24.4357C23.4588 24.4357 25.4593 22.4364 25.4593 19.9786C25.4593 17.5205 23.4588 15.5211 20.9999 15.5211C18.541 15.5211 16.5408 17.5205 16.5408 19.9786Z" fill="url(#paint7_linear_235_61)" stroke="url(#paint8_linear_235_61)" stroke-width="0.25"/>
<defs>
<linearGradient id="paint0_linear_235_61" x1="3.69867" y1="4.89844" x2="22.5688" y2="37.2524" gradientUnits="userSpaceOnUse">
<stop offset="0.259336" stop-color="#6EC2FF"/>
<stop offset="1" stop-color="#6EC2FF"/>
</linearGradient>
<linearGradient id="paint1_linear_235_61" x1="1.17724" y1="18.7358" x2="2.78931" y2="19.2345" gradientUnits="userSpaceOnUse">
<stop offset="0.259336" stop-color="#6EC2FF"/>
<stop offset="1" stop-color="#6EC2FF"/>
</linearGradient>
<linearGradient id="paint2_linear_235_61" x1="1.17724" y1="18.7358" x2="2.78931" y2="19.2345" gradientUnits="userSpaceOnUse">
<stop offset="0.259336" stop-color="#6EC2FF"/>
<stop offset="1" stop-color="#6EC2FF"/>
</linearGradient>
<linearGradient id="paint3_linear_235_61" x1="3.26667" y1="0.899903" x2="27.6816" y2="36.6088" gradientUnits="userSpaceOnUse">
<stop offset="0.259336" stop-color="#6EC2FF"/>
<stop offset="1" stop-color="#6EC2FF"/>
</linearGradient>
<linearGradient id="paint4_linear_235_61" x1="3.26667" y1="0.899903" x2="27.6816" y2="36.6088" gradientUnits="userSpaceOnUse">
<stop offset="0.259336" stop-color="#6EC2FF"/>
<stop offset="1" stop-color="#6EC2FF"/>
</linearGradient>
<linearGradient id="paint5_linear_235_61" x1="14.1208" y1="12.2231" x2="27.511" y2="27.0156" gradientUnits="userSpaceOnUse">
<stop offset="0.259336" stop-color="#6EC2FF"/>
<stop offset="1" stop-color="#6EC2FF"/>
</linearGradient>
<linearGradient id="paint6_linear_235_61" x1="14.1208" y1="12.2231" x2="27.511" y2="27.0156" gradientUnits="userSpaceOnUse">
<stop offset="0.259336" stop-color="#6EC2FF"/>
<stop offset="1" stop-color="#6EC2FF"/>
</linearGradient>
<linearGradient id="paint7_linear_235_61" x1="16.2288" y1="14.5996" x2="25.5157" y2="24.8593" gradientUnits="userSpaceOnUse">
<stop offset="0.259336" stop-color="#6EC2FF"/>
<stop offset="1" stop-color="#6EC2FF"/>
</linearGradient>
<linearGradient id="paint8_linear_235_61" x1="16.2288" y1="14.5996" x2="25.5157" y2="24.8593" gradientUnits="userSpaceOnUse">
<stop offset="0.259336" stop-color="#6EC2FF"/>
<stop offset="1" stop-color="#6EC2FF"/>
</linearGradient>
</defs>
</svg>
